<svg width="236" height="236" viewBox="0 0 236 236" fill="none" xmlns="http://www.w3.org/2000/svg">
<circle cx="118" cy="118" r="118" fill="#E28743"/>
<path d="M9.76407 148.887C9.66501 148.557 9.67531 148.279 9.79497 148.051C9.91464 147.824 10.1421 147.656 10.4774 147.548L16.8523 145.502C17.1954 145.392 17.4826 145.394 17.7138 145.509C17.9528 145.622 18.1148 145.819 18.1997 146.102C18.2752 146.353 18.2874 146.564 18.2363 146.735C18.1851 146.906 18.0763 147.113 17.9099 147.356L14.3994 152.572L14.3004 152.242L18.5347 150.883C18.8622 150.778 19.1365 150.78 19.3576 150.89C19.581 151.007 19.7423 151.231 19.8413 151.56C19.9404 151.89 19.9289 152.164 19.8069 152.384C19.6872 152.612 19.4636 152.778 19.1361 152.883L12.656 154.963C12.3597 155.058 12.0983 155.056 11.8717 154.957C11.653 154.855 11.5036 154.671 11.4234 154.404C11.3432 154.137 11.3263 153.911 11.3727 153.724C11.4292 153.542 11.5368 153.331 11.6955 153.091L15.2177 147.871L15.3167 148.201L11.0824 149.56C10.7471 149.668 10.4677 149.663 10.2443 149.545C10.0232 149.436 9.86313 149.216 9.76407 148.887Z" fill="white"/>
<path d="M13.6977 159.93C13.4493 159.306 13.3495 158.712 13.3984 158.149C13.4472 157.585 13.6387 157.081 13.9729 156.637C14.3071 156.192 14.7719 155.844 15.3673 155.59C15.8196 155.398 16.2516 155.299 16.6634 155.293C17.0828 155.284 17.4714 155.364 17.8292 155.532C18.1945 155.697 18.517 155.942 18.7966 156.268C19.0838 156.591 19.3213 156.988 19.5091 157.46C19.7575 158.084 19.8573 158.678 19.8085 159.241C19.7596 159.805 19.5666 160.305 19.2294 160.742C18.9028 161.183 18.438 161.532 17.835 161.788C17.3903 161.977 16.9582 162.076 16.5389 162.085C16.1195 162.094 15.7272 162.016 15.3618 161.851C15.007 161.691 14.6846 161.445 14.3944 161.115C14.1148 160.789 13.8826 160.394 13.6977 159.93ZM15.1788 159.3C15.2606 159.506 15.3824 159.667 15.544 159.786C15.7131 159.901 15.9161 159.957 16.1529 159.954C16.4003 159.955 16.6899 159.886 17.0215 159.745C17.5265 159.53 17.8489 159.278 17.9887 158.987C18.1361 158.693 18.1492 158.394 18.028 158.089C17.9462 157.884 17.8245 157.722 17.6629 157.604C17.5013 157.486 17.2968 157.426 17.0494 157.424C16.8095 157.42 16.52 157.489 16.1808 157.633C15.6833 157.845 15.3609 158.098 15.2136 158.391C15.0662 158.685 15.0546 158.988 15.1788 159.3Z" fill="white"/>
<path d="M16.7556 166.534C16.5276 166.062 16.4244 165.632 16.4457 165.243C16.4744 164.851 16.6224 164.489 16.8898 164.158C17.1607 163.834 17.5582 163.537 18.0823 163.266L20.3753 162.084C20.6956 161.919 20.9768 161.88 21.2189 161.967C21.4682 162.051 21.6695 162.251 21.8227 162.568C21.9758 162.885 22.0097 163.172 21.9242 163.428C21.8459 163.68 21.6467 163.888 21.3264 164.053L18.9787 165.264C18.7167 165.399 18.5468 165.555 18.4692 165.734C18.3916 165.912 18.4098 166.119 18.5238 166.355C18.652 166.62 18.8517 166.789 19.1229 166.861C19.3941 166.933 19.6862 166.888 19.9992 166.727L22.0957 165.646C22.416 165.481 22.6972 165.442 22.9393 165.529C23.1886 165.613 23.3899 165.813 23.5431 166.13C23.6962 166.447 23.7301 166.734 23.6446 166.989C23.5663 167.242 23.3671 167.45 23.0468 167.615L19.4325 169.479C18.7773 169.816 18.2966 169.668 17.9903 169.034C17.8407 168.724 17.8086 168.441 17.8941 168.185C17.9796 167.929 18.1825 167.719 18.5028 167.554L19.1362 167.227L18.6866 167.68C18.2515 167.702 17.8681 167.614 17.5364 167.416C17.2082 167.226 16.9479 166.932 16.7556 166.534Z" fill="white"/>
<path d="M19.887 172.272C19.709 171.959 19.6519 171.668 19.7159 171.399C19.7839 171.138 19.972 170.914 20.2801 170.727L23.757 168.619C24.0581 168.436 24.3337 168.374 24.5838 168.433C24.8379 168.499 25.0499 168.682 25.2199 168.981C25.3898 169.28 25.4387 169.557 25.3667 169.811C25.2946 170.065 25.108 170.284 24.8069 170.466L24.3762 170.728L24.3155 170.621C24.7762 170.437 25.212 170.417 25.6229 170.56C26.038 170.711 26.3779 171.002 26.6427 171.435C26.7671 171.638 26.8015 171.823 26.7461 171.99C26.7018 172.161 26.5346 172.339 26.2445 172.524C25.9924 172.677 25.7625 172.745 25.5547 172.727C25.347 172.71 25.1441 172.56 24.9462 172.278L24.7856 172.045C24.5362 171.689 24.2754 171.478 24.0032 171.413C23.738 171.344 23.4374 171.412 23.1012 171.616L21.3786 172.66C21.0704 172.847 20.7893 172.907 20.5352 172.841C20.2811 172.775 20.065 172.586 19.887 172.272Z" fill="white"/>
<path d="M22.8977 177.195C22.7137 176.904 22.6561 176.622 22.7249 176.348C22.7937 176.074 22.9876 175.829 23.3065 175.614L26.5226 173.44C26.8415 173.224 27.1361 173.139 27.4065 173.183C27.6769 173.228 27.9042 173.395 28.0882 173.686C28.2767 173.983 28.3365 174.269 28.2676 174.543C28.2032 174.823 28.0115 175.072 27.6926 175.287L24.4765 177.461C24.1576 177.677 23.863 177.762 23.5926 177.718C23.3221 177.673 23.0905 177.499 22.8977 177.195ZM28.8108 173.197C28.6049 172.872 28.5195 172.569 28.5549 172.288C28.5946 172.014 28.7569 171.781 29.0419 171.589C29.3201 171.401 29.5886 171.343 29.8474 171.415C30.1106 171.494 30.3452 171.696 30.5512 172.021C30.7659 172.36 30.8534 172.666 30.8137 172.94C30.774 173.214 30.615 173.445 30.3368 173.633C30.0519 173.826 29.78 173.886 29.5211 173.814C29.2623 173.742 29.0255 173.536 28.8108 173.197Z" fill="white"/>
<path d="M25.6191 181.259C25.4152 180.962 25.2299 180.641 25.063 180.297C24.8942 179.964 24.7802 179.631 24.7211 179.299C24.6714 179.082 24.6772 178.895 24.7385 178.739C24.8045 178.589 24.9003 178.468 25.0259 178.376C25.156 178.291 25.2939 178.246 25.4393 178.241C25.596 178.238 25.7335 178.279 25.8519 178.365C25.9816 178.452 26.071 178.59 26.12 178.777C26.2155 179.133 26.3166 179.44 26.4232 179.697C26.5411 179.955 26.6718 180.189 26.8154 180.399C26.9869 180.648 27.1427 180.803 27.2829 180.863C27.4297 180.918 27.5593 180.904 27.6716 180.822C27.7707 180.749 27.8212 180.656 27.8231 180.543C27.8297 180.437 27.7988 180.313 27.7306 180.17L27.1376 178.915C26.9231 178.443 26.8493 178.01 26.9165 177.616C26.9902 177.217 27.2121 176.882 27.5822 176.611C27.9258 176.359 28.287 176.242 28.6658 176.259C29.0559 176.277 29.4352 176.411 29.8037 176.658C30.1833 176.908 30.5284 177.259 30.8388 177.711C31.0473 178.015 31.2141 178.309 31.3393 178.593C31.4711 178.872 31.5619 179.17 31.6117 179.489C31.6542 179.681 31.6401 179.849 31.5694 179.992C31.4988 180.135 31.3961 180.245 31.2613 180.324C31.1331 180.397 30.9906 180.436 30.8339 180.439C30.6885 180.444 30.5542 180.4 30.4312 180.308C30.3148 180.21 30.2274 180.061 30.169 179.861C30.102 179.575 30.0281 179.33 29.9473 179.125C29.8711 178.927 29.7821 178.754 29.6802 178.605C29.4902 178.328 29.3195 178.159 29.1681 178.098C29.0166 178.036 28.8847 178.046 28.7724 178.129C28.6865 178.191 28.6346 178.275 28.6169 178.379C28.6057 178.479 28.6342 178.6 28.7024 178.743L29.2855 180.005C29.516 180.486 29.5976 180.923 29.5305 181.317C29.4746 181.713 29.2583 182.049 28.8817 182.325C28.3464 182.717 27.7865 182.812 27.2019 182.611C26.6239 182.406 26.0963 181.955 25.6191 181.259Z" fill="white"/>
<path d="M28.8854 185.547C28.6736 185.276 28.582 185.006 28.6106 184.737C28.6393 184.468 28.7919 184.218 29.0686 183.987L34.1908 179.714C34.4675 179.483 34.7362 179.381 34.9968 179.409C35.2575 179.437 35.4937 179.586 35.7055 179.857C35.9224 180.135 36.0165 180.408 35.9879 180.677C35.9643 180.952 35.8141 181.206 35.5374 181.436L33.481 183.152L33.36 182.997C33.7766 182.905 34.1745 182.936 34.5536 183.089C34.9378 183.248 35.2736 183.511 35.5611 183.879C35.8587 184.26 36.031 184.633 36.078 184.999C36.1313 185.36 36.055 185.727 35.8489 186.102C35.6492 186.471 35.3229 186.844 34.8701 187.222L32.8892 188.875C32.6125 189.105 32.3438 189.207 32.0832 189.179C31.8225 189.152 31.5838 188.999 31.3669 188.721C31.15 188.444 31.0559 188.171 31.0845 187.902C31.1132 187.633 31.2658 187.383 31.5425 187.152L33.4575 185.554C33.7404 185.318 33.9013 185.099 33.9401 184.896C33.984 184.699 33.9302 184.504 33.7789 184.311C33.5772 184.053 33.334 183.914 33.0495 183.896C32.7712 183.872 32.4968 183.973 32.2264 184.199L30.4153 185.71C29.8493 186.182 29.3393 186.128 28.8854 185.547Z" fill="white"/>
<path d="M34.2081 191.825C33.979 191.569 33.8758 191.3 33.8985 191.018C33.9212 190.736 34.0719 190.462 34.3505 190.197L37.1603 187.518C37.439 187.253 37.7151 187.12 37.9888 187.119C38.2625 187.118 38.5139 187.246 38.743 187.502C38.9776 187.765 39.0835 188.037 39.0608 188.319C39.0435 188.607 38.8956 188.884 38.617 189.149L35.8071 191.828C35.5285 192.093 35.2524 192.226 34.9787 192.227C34.705 192.228 34.4481 192.094 34.2081 191.825ZM39.3743 186.901C39.1179 186.613 38.984 186.328 38.9726 186.045C38.9666 185.768 39.0881 185.511 39.3371 185.274C39.5801 185.042 39.835 184.94 40.1018 184.969C40.3741 185.003 40.6384 185.164 40.8948 185.451C41.1622 185.75 41.2988 186.039 41.3048 186.316C41.3108 186.593 41.1922 186.847 40.9492 187.079C40.7002 187.316 40.4423 187.42 40.1755 187.392C39.9087 187.364 39.6416 187.2 39.3743 186.901Z" fill="white"/>
<path d="M36.3184 194.06C36.0801 193.812 35.9614 193.553 35.9624 193.282C35.9634 193.012 36.0898 192.747 36.3413 192.489L39.1803 189.578C39.4262 189.326 39.6773 189.198 39.9337 189.193C40.1957 189.194 40.4458 189.318 40.6842 189.566C40.9225 189.814 41.0383 190.071 41.0316 190.335C41.0249 190.6 40.8986 190.859 40.6527 191.111L40.2496 191.524L40.5077 191.066C40.9126 190.932 41.3113 190.922 41.7039 191.035C42.1022 191.154 42.4631 191.382 42.7865 191.719C43.1213 192.067 43.3307 192.421 43.4148 192.781C43.5046 193.134 43.4662 193.508 43.2995 193.901C43.1386 194.289 42.8522 194.694 42.4405 195.116L40.6394 196.963C40.3878 197.221 40.131 197.349 39.869 197.348C39.6069 197.347 39.3539 197.22 39.11 196.966C38.866 196.712 38.7445 196.45 38.7455 196.179C38.7465 195.908 38.8728 195.644 39.1244 195.386L40.8656 193.601C41.1229 193.337 41.2605 193.102 41.2783 192.896C41.3019 192.696 41.2285 192.508 41.0583 192.33C40.8313 192.094 40.5754 191.981 40.2906 191.992C40.0115 191.997 39.749 192.125 39.5031 192.378L37.8563 194.066C37.3417 194.594 36.829 194.592 36.3184 194.06Z" fill="white"/>
<path d="M42.1272 202.662C41.7923 202.361 41.4999 202.054 41.2499 201.741C40.9947 201.434 40.7975 201.141 40.6583 200.862C40.5346 200.64 40.4863 200.437 40.5136 200.252C40.5408 200.068 40.6129 199.912 40.7299 199.786C40.8468 199.66 40.9806 199.571 41.1312 199.52C41.2879 199.474 41.4422 199.475 41.594 199.523C41.7405 199.578 41.8597 199.691 41.9514 199.861C42.1242 200.215 42.307 200.506 42.4998 200.735C42.6872 200.97 42.8571 201.155 43.0093 201.292C43.3806 201.627 43.7262 201.794 44.0461 201.796C44.3668 201.809 44.6697 201.647 44.9548 201.309L45.4537 200.717L45.5267 200.783C45.2137 200.964 44.8459 201.013 44.4233 200.93C44.006 200.84 43.633 200.648 43.3043 200.352C42.9025 199.991 42.6316 199.582 42.4917 199.125C42.357 198.663 42.3497 198.183 42.4696 197.685C42.5955 197.193 42.8539 196.715 43.2445 196.251C43.5402 195.901 43.8555 195.628 44.1904 195.434C44.5254 195.24 44.8626 195.12 45.202 195.073C45.5474 195.031 45.8868 195.067 46.2201 195.18C46.5647 195.291 46.8862 195.482 47.1845 195.75C47.5254 196.057 47.7611 196.412 47.8917 196.816C48.0284 197.225 48.0316 197.603 47.9012 197.948L47.4852 198.251L47.8336 197.837C48.0606 197.568 48.3048 197.425 48.5663 197.407C48.8338 197.394 49.0954 197.503 49.3511 197.733C49.6068 197.963 49.7409 198.21 49.7534 198.475C49.772 198.745 49.6678 199.014 49.4408 199.284L46.7009 202.533C46.0251 203.335 45.2992 203.739 44.523 203.745C43.7415 203.757 42.9429 203.397 42.1272 202.662ZM44.8439 199.574C45.0265 199.738 45.216 199.837 45.4125 199.871C45.6143 199.898 45.8177 199.866 46.0227 199.776C46.233 199.679 46.4332 199.517 46.6232 199.292C46.9083 198.954 47.0509 198.62 47.051 198.289C47.0511 197.959 46.9172 197.673 46.6493 197.432C46.4789 197.279 46.2897 197.186 46.0819 197.153C45.8793 197.114 45.6729 197.143 45.4626 197.24C45.2636 197.336 45.0691 197.497 44.8791 197.722C44.594 198.061 44.4514 198.395 44.4513 198.725C44.4512 199.055 44.5821 199.338 44.8439 199.574Z" fill="white"/>
<path d="M53.2825 208.489C52.9908 208.277 52.8205 208.033 52.7718 207.755C52.7277 207.47 52.8115 207.172 53.0231 206.86L54.9142 204.076L54.5951 205.376L54.5919 200.354C54.5896 200.11 54.6618 199.894 54.8085 199.707C54.9664 199.518 55.161 199.407 55.3923 199.372C55.6348 199.336 55.8887 199.413 56.1539 199.606C56.3396 199.74 56.4765 199.91 56.5646 200.116C56.6573 200.314 56.6963 200.57 56.6817 200.883L56.6524 203.986L56.2944 203.726L59.1156 202.632C59.402 202.516 59.6481 202.467 59.8538 202.485C60.0595 202.502 60.2619 202.583 60.4608 202.727C60.7128 202.91 60.8647 203.116 60.9165 203.346C60.9683 203.576 60.9308 203.791 60.804 203.992C60.6839 204.198 60.4885 204.355 60.2178 204.462L55.6793 206.162L56.7444 205.402L54.8533 208.187C54.4162 208.83 53.8926 208.931 53.2825 208.489Z" fill="white"/>
<path d="M59.8596 212.719C59.2885 212.366 58.8542 211.948 58.5567 211.465C58.2592 210.983 58.1111 210.463 58.1126 209.905C58.114 209.348 58.2769 208.789 58.6014 208.229C58.8478 207.804 59.1338 207.466 59.4591 207.215C59.7886 206.957 60.1465 206.788 60.5327 206.71C60.9231 206.624 61.3273 206.628 61.7454 206.723C62.1675 206.811 62.5945 206.989 63.0263 207.256C63.5974 207.609 64.0317 208.027 64.3293 208.51C64.6268 208.992 64.7713 209.51 64.7629 210.063C64.7656 210.614 64.6027 211.172 64.2741 211.739C64.0317 212.157 63.7458 212.495 63.4164 212.753C63.0869 213.012 62.727 213.184 62.3366 213.27C61.9573 213.353 61.5531 213.348 61.1239 213.256C60.7059 213.161 60.2844 212.982 59.8596 212.719ZM60.6667 211.327C60.8547 211.443 61.0486 211.5 61.2482 211.499C61.452 211.49 61.6476 211.414 61.8351 211.27C62.0337 211.123 62.2234 210.894 62.4041 210.582C62.6793 210.107 62.7859 209.711 62.7239 209.394C62.6661 209.069 62.4978 208.821 62.2192 208.648C62.0312 208.532 61.8374 208.475 61.6377 208.476C61.4381 208.478 61.2389 208.552 61.0404 208.699C60.8459 208.838 60.6562 209.068 60.4714 209.386C60.2003 209.854 60.0937 210.25 60.1516 210.575C60.2094 210.899 60.3811 211.15 60.6667 211.327Z" fill="white"/>
<path d="M65.6069 215.882C65.1439 215.636 64.806 215.35 64.5933 215.024C64.3842 214.691 64.2893 214.312 64.3088 213.886C64.3354 213.465 64.48 212.99 64.7425 212.462L65.891 210.152C66.0514 209.829 66.2549 209.632 66.5015 209.559C66.7518 209.478 67.0325 209.521 67.3435 209.686C67.6546 209.851 67.8514 210.062 67.934 210.319C68.0201 210.568 67.983 210.854 67.8226 211.177L66.6468 213.542C66.5155 213.806 66.4713 214.033 66.5142 214.223C66.5571 214.412 66.6943 214.568 66.9258 214.691C67.1863 214.829 67.4471 214.847 67.7083 214.745C67.9694 214.643 68.1784 214.434 68.3352 214.118L69.3852 212.006C69.5457 211.684 69.7492 211.486 69.9958 211.413C70.246 211.332 70.5267 211.375 70.8378 211.54C71.1488 211.705 71.3457 211.916 71.4282 212.173C71.5144 212.422 71.4773 212.709 71.3168 213.031L69.5066 216.672C69.1785 217.332 68.7033 217.497 68.0812 217.167C67.7773 217.006 67.5841 216.797 67.5016 216.54C67.4191 216.283 67.458 215.993 67.6184 215.67L67.9356 215.032L67.8413 215.663C67.5035 215.938 67.1425 216.094 66.7583 216.132C66.3814 216.172 65.9976 216.089 65.6069 215.882Z" fill="white"/>
<path d="M72.2349 218.993C71.9055 218.847 71.6871 218.647 71.5797 218.394C71.4798 218.143 71.499 217.852 71.6373 217.519L73.1978 213.764C73.3329 213.439 73.519 213.226 73.756 213.125C74.0005 213.027 74.2799 213.048 74.5944 213.188C74.9088 213.327 75.1122 213.521 75.2046 213.768C75.297 214.015 75.2757 214.301 75.1405 214.626L74.9472 215.091L74.8349 215.041C75.0984 214.621 75.4386 214.346 75.8555 214.218C76.28 214.092 76.7274 214.125 77.1978 214.316C77.4181 214.405 77.5555 214.533 77.61 214.7C77.6751 214.863 77.6455 215.105 77.5209 215.426C77.4078 215.699 77.2621 215.889 77.0838 215.998C76.9055 216.107 76.6528 216.107 76.3258 215.998L76.0581 215.906C75.6456 215.768 75.3103 215.754 75.052 215.863C74.7969 215.965 74.5939 216.197 74.4431 216.56L73.6699 218.421C73.5316 218.753 73.3402 218.969 73.0957 219.066C72.8513 219.164 72.5643 219.139 72.2349 218.993Z" fill="white"/>
<path d="M80.8901 222.333C80.5489 222.217 80.3151 222.034 80.1887 221.783C80.0648 221.525 80.0587 221.22 80.1706 220.869L82.166 214.607C82.2803 214.248 82.4604 214.007 82.7062 213.883C82.9519 213.759 83.2454 213.755 83.5865 213.871C83.9355 213.989 84.1693 214.173 84.2879 214.421C84.4143 214.671 84.4204 214.976 84.306 215.335L83.6085 217.524L86.993 218.675L87.6905 216.486C87.8048 216.127 87.981 215.884 88.219 215.757C88.4648 215.633 88.7621 215.631 89.1111 215.749C89.4522 215.865 89.6821 216.047 89.8008 216.295C89.9272 216.546 89.9332 216.851 89.8189 217.21L87.8235 223.472C87.7116 223.823 87.5316 224.064 87.2833 224.196C87.0453 224.323 86.7557 224.328 86.4146 224.212C86.0657 224.093 85.828 223.909 85.7016 223.658C85.5854 223.402 85.5833 223.099 85.6951 222.748L86.4299 220.442L83.0454 219.291L82.3107 221.597C82.1988 221.948 82.0226 222.191 81.7821 222.325C81.5441 222.452 81.2467 222.455 80.8901 222.333Z" fill="white"/>
<path d="M92.5076 225.637C91.7918 225.461 91.1999 225.185 90.732 224.809C90.2739 224.426 89.9589 223.97 89.7872 223.438C89.6154 222.907 89.6022 222.326 89.7474 221.696C89.8871 221.089 90.1405 220.59 90.5077 220.2C90.8848 219.804 91.3333 219.534 91.8534 219.392C92.3833 219.244 92.9465 219.244 93.5429 219.39C93.9804 219.498 94.3615 219.667 94.6863 219.899C95.0129 220.123 95.2722 220.401 95.4643 220.735C95.6581 221.061 95.7754 221.427 95.8163 221.834C95.8651 222.242 95.8362 222.678 95.7296 223.141C95.6929 223.3 95.6215 223.409 95.5157 223.468C95.4117 223.518 95.2642 223.52 95.0733 223.473L91.4229 222.575L91.6545 221.57L94.3028 222.221L94.0761 222.329C94.1441 222.034 94.1595 221.785 94.1223 221.582C94.085 221.379 93.9979 221.21 93.8609 221.075C93.7318 220.942 93.552 220.847 93.3213 220.79C93.0748 220.73 92.8463 220.737 92.6358 220.812C92.4351 220.88 92.2613 221.015 92.1144 221.215C91.9675 221.415 91.8554 221.682 91.7782 222.018L91.7534 222.125C91.6229 222.692 91.6524 223.129 91.842 223.437C92.0414 223.739 92.4035 223.955 92.9284 224.084C93.1034 224.127 93.3068 224.156 93.5387 224.171C93.7803 224.179 94.0137 224.169 94.2389 224.14C94.4641 224.111 94.6458 224.143 94.784 224.236C94.9241 224.321 95.0192 224.438 95.0693 224.585C95.1292 224.726 95.1448 224.877 95.116 225.039C95.089 225.193 95.0183 225.335 94.9038 225.467C94.7912 225.592 94.6343 225.671 94.433 225.706C94.1252 225.765 93.8049 225.788 93.4721 225.773C93.1472 225.761 92.8257 225.716 92.5076 225.637Z" fill="white"/>
<path d="M98.8783 226.838C98.4184 226.758 98.0249 226.602 97.6976 226.371C97.3784 226.14 97.1417 225.862 96.9875 225.536C96.8427 225.203 96.8013 224.847 96.8634 224.467C96.9346 224.031 97.1037 223.707 97.3705 223.496C97.6374 223.284 98.0295 223.17 98.5468 223.152C99.0656 223.126 99.7404 223.185 100.571 223.33L101.237 223.446L101.071 224.465L100.405 224.349C100.09 224.294 99.8243 224.272 99.6066 224.284C99.3983 224.29 99.2378 224.332 99.1251 224.412C99.0138 224.484 98.9463 224.593 98.9225 224.739C98.8921 224.925 98.9316 225.089 99.0409 225.233C99.1582 225.378 99.342 225.473 99.5921 225.516C99.7938 225.551 99.9786 225.538 100.146 225.476C100.322 225.415 100.471 225.316 100.593 225.18C100.716 225.035 100.795 224.857 100.829 224.647L101.059 223.241C101.107 222.95 101.064 222.73 100.93 222.582C100.805 222.436 100.56 222.331 100.197 222.268C100.004 222.234 99.7819 222.22 99.5319 222.226C99.2833 222.225 99.0005 222.254 98.6835 222.315C98.4524 222.358 98.2649 222.338 98.1208 222.255C97.9768 222.171 97.8716 222.053 97.8053 221.9C97.747 221.749 97.7311 221.592 97.7575 221.431C97.792 221.271 97.8695 221.126 97.9901 220.998C98.1187 220.87 98.2945 220.785 98.5175 220.74C98.9285 220.662 99.2994 220.627 99.63 220.635C99.9687 220.644 100.275 220.673 100.55 220.72C101.211 220.836 101.74 221.028 102.136 221.296C102.541 221.558 102.816 221.905 102.961 222.338C103.116 222.764 103.143 223.284 103.043 223.898L102.643 226.347C102.585 226.703 102.456 226.959 102.256 227.115C102.056 227.272 101.795 227.322 101.472 227.265C101.141 227.208 100.902 227.071 100.755 226.854C100.616 226.638 100.576 226.353 100.634 225.997L100.685 225.682L100.73 225.864C100.648 226.116 100.518 226.322 100.343 226.483C100.167 226.643 99.9539 226.756 99.7028 226.82C99.4517 226.884 99.1768 226.89 98.8783 226.838Z" fill="white"/>
<path d="M106.396 227.807C105.615 227.72 105.059 227.447 104.728 226.99C104.406 226.526 104.29 225.87 104.379 225.023L104.927 219.794C104.964 219.435 105.086 219.173 105.293 219.006C105.5 218.84 105.774 218.776 106.116 218.814C106.466 218.853 106.725 218.977 106.892 219.185C107.068 219.394 107.137 219.678 107.1 220.037L106.559 225.193C106.528 225.494 106.562 225.72 106.661 225.871C106.769 226.024 106.916 226.11 107.103 226.131C107.16 226.137 107.218 226.14 107.275 226.138C107.342 226.129 107.413 226.124 107.487 226.124C107.625 226.14 107.721 226.204 107.775 226.317C107.838 226.432 107.852 226.651 107.817 226.977C107.788 227.262 107.708 227.472 107.579 227.606C107.45 227.731 107.266 227.801 107.025 227.816C106.96 227.817 106.865 227.818 106.741 227.821C106.617 227.824 106.502 227.819 106.396 227.807Z" fill="white"/>
<path d="M110.993 228.147C110.38 228.102 109.88 227.971 109.493 227.754C109.114 227.538 108.839 227.234 108.669 226.844C108.499 226.446 108.434 225.96 108.473 225.389L108.61 223.391L108.193 223.36C107.932 223.341 107.733 223.257 107.595 223.107C107.466 222.958 107.41 222.753 107.428 222.491C107.446 222.23 107.529 222.039 107.677 221.918C107.833 221.79 108.042 221.736 108.303 221.755L108.72 221.785L108.772 221.025C108.797 220.666 108.909 220.399 109.11 220.225C109.311 220.051 109.587 219.976 109.938 220.002C110.289 220.028 110.552 220.142 110.727 220.343C110.902 220.545 110.978 220.825 110.953 221.185L110.901 221.945L111.906 222.018C112.175 222.038 112.375 222.122 112.504 222.272C112.642 222.413 112.702 222.615 112.684 222.876C112.666 223.137 112.579 223.332 112.422 223.46C112.274 223.589 112.065 223.644 111.795 223.624L110.791 223.55L110.659 225.475C110.638 225.777 110.692 226.007 110.821 226.164C110.959 226.314 111.182 226.4 111.493 226.422C111.607 226.431 111.718 226.427 111.826 226.41C111.934 226.393 112.033 226.388 112.123 226.395C112.254 226.396 112.357 226.445 112.433 226.54C112.509 226.628 112.537 226.823 112.516 227.125C112.499 227.371 112.448 227.576 112.363 227.742C112.278 227.901 112.139 228.009 111.946 228.069C111.829 228.102 111.672 228.123 111.474 228.133C111.276 228.152 111.115 228.156 110.993 228.147Z" fill="white"/>
<path d="M114.33 228.223C113.986 228.215 113.722 228.115 113.538 227.922C113.353 227.729 113.265 227.453 113.273 227.092L113.417 220.423C113.425 220.063 113.525 219.791 113.717 219.607C113.91 219.423 114.178 219.335 114.522 219.343C114.874 219.351 115.142 219.452 115.326 219.644C115.519 219.837 115.611 220.114 115.603 220.474L115.545 223.151L115.349 223.147C115.554 222.766 115.838 222.478 116.203 222.282C116.576 222.086 116.996 221.993 117.462 222.004C117.945 222.015 118.341 222.118 118.648 222.314C118.955 222.501 119.182 222.793 119.329 223.189C119.476 223.578 119.544 224.067 119.531 224.656L119.475 227.236C119.467 227.596 119.367 227.868 119.175 228.052C118.982 228.236 118.71 228.324 118.358 228.316C118.006 228.308 117.738 228.207 117.554 228.015C117.369 227.822 117.281 227.545 117.289 227.185L117.343 224.692C117.351 224.323 117.291 224.06 117.163 223.901C117.044 223.743 116.861 223.661 116.616 223.655C116.288 223.648 116.024 223.748 115.823 223.956C115.622 224.157 115.518 224.433 115.51 224.785L115.459 227.143C115.443 227.88 115.067 228.24 114.33 228.223Z" fill="white"/>
<path d="M122.89 229.468C122.767 229.653 122.623 229.758 122.46 229.781C122.306 229.812 122.169 229.785 122.051 229.7C121.934 229.623 121.863 229.507 121.841 229.352C121.827 229.205 121.89 229.039 122.03 228.852C122.225 228.607 122.351 228.363 122.407 228.123C122.463 227.883 122.487 227.669 122.48 227.481L122.577 228.079C122.201 228.095 121.894 228.002 121.656 227.799C121.418 227.587 121.292 227.298 121.278 226.929C121.264 226.577 121.359 226.291 121.563 226.069C121.775 225.839 122.065 225.716 122.434 225.7C122.818 225.684 123.122 225.802 123.345 226.055C123.568 226.3 123.689 226.651 123.707 227.109C123.716 227.338 123.701 227.573 123.661 227.812C123.629 228.051 123.553 228.304 123.433 228.572C123.321 228.847 123.14 229.146 122.89 229.468Z" fill="white"/>
<path d="M129.615 227.432C129.233 227.475 128.929 227.41 128.705 227.237C128.489 227.055 128.361 226.777 128.321 226.402L127.662 220.11C127.623 219.735 127.69 219.439 127.865 219.222C128.047 218.996 128.33 218.861 128.712 218.818L132.851 218.355C133.144 218.323 133.371 218.371 133.533 218.501C133.695 218.632 133.791 218.835 133.82 219.112C133.85 219.397 133.799 219.625 133.669 219.797C133.538 219.96 133.326 220.057 133.033 220.09L129.871 220.444L130.042 222.081L132.936 221.757C133.221 221.726 133.444 221.775 133.606 221.905C133.776 222.034 133.876 222.242 133.906 222.527C133.936 222.812 133.881 223.036 133.742 223.2C133.611 223.363 133.403 223.461 133.118 223.492L130.224 223.816L130.41 225.588L133.572 225.234C133.865 225.201 134.093 225.254 134.256 225.392C134.417 225.523 134.513 225.726 134.542 226.003C134.572 226.288 134.521 226.512 134.39 226.675C134.259 226.838 134.047 226.936 133.754 226.969L129.615 227.432Z" fill="white"/>
<path d="M136.938 226.478C136.6 226.542 136.322 226.499 136.104 226.349C135.886 226.199 135.746 225.946 135.682 225.592L134.97 221.588C134.908 221.242 134.949 220.959 135.093 220.74C135.245 220.519 135.49 220.377 135.828 220.312C136.166 220.248 136.44 220.292 136.65 220.444C136.86 220.596 136.996 220.845 137.057 221.191L137.176 221.857L136.938 221.289C137.043 220.902 137.243 220.573 137.535 220.3C137.834 220.019 138.213 219.834 138.672 219.747C139.106 219.664 139.495 219.699 139.838 219.85C140.189 220 140.471 220.276 140.684 220.677L140.515 220.709C140.63 220.279 140.852 219.916 141.182 219.62C141.512 219.324 141.902 219.133 142.353 219.047C142.819 218.959 143.218 218.979 143.549 219.107C143.878 219.228 144.15 219.468 144.363 219.828C144.584 220.178 144.745 220.643 144.849 221.224L145.301 223.763C145.364 224.118 145.316 224.407 145.156 224.629C145.004 224.849 144.755 224.993 144.409 225.058C144.071 225.123 143.793 225.08 143.575 224.929C143.357 224.779 143.216 224.526 143.153 224.172L142.711 221.692C142.65 221.346 142.553 221.106 142.421 220.972C142.289 220.839 142.102 220.795 141.861 220.841C141.563 220.898 141.353 221.046 141.229 221.286C141.114 221.525 141.09 221.838 141.159 222.225L141.56 224.474C141.623 224.829 141.579 225.117 141.427 225.338C141.275 225.558 141.026 225.701 140.68 225.767C140.334 225.833 140.052 225.791 139.834 225.64C139.615 225.49 139.475 225.238 139.412 224.883L138.97 222.403C138.908 222.057 138.812 221.817 138.68 221.683C138.548 221.55 138.361 221.506 138.12 221.552C137.83 221.607 137.624 221.755 137.5 221.995C137.384 222.234 137.361 222.547 137.43 222.934L137.831 225.183C137.96 225.909 137.662 226.341 136.938 226.478Z" fill="white"/>
<path d="M148.377 226.087C148.047 226.183 147.766 226.167 147.536 226.038C147.306 225.908 147.143 225.67 147.049 225.322L145.401 219.265C145.308 218.925 145.324 218.639 145.447 218.407C145.579 218.173 145.81 218.008 146.14 217.912C146.478 217.814 146.758 217.83 146.981 217.962C147.211 218.091 147.373 218.326 147.465 218.665L147.652 219.353L147.364 218.81C147.378 218.422 147.528 218.071 147.816 217.758C148.11 217.433 148.481 217.206 148.929 217.076C149.433 216.93 149.906 216.925 150.351 217.06C150.803 217.193 151.196 217.454 151.531 217.843C151.866 218.231 152.121 218.746 152.295 219.386C152.465 220.01 152.506 220.582 152.418 221.102C152.33 221.622 152.127 222.061 151.808 222.418C151.498 222.772 151.091 223.023 150.587 223.169C150.155 223.295 149.737 223.305 149.335 223.2C148.933 223.095 148.628 222.894 148.42 222.596L148.562 222.555L149.149 224.712C149.243 225.06 149.221 225.352 149.082 225.589C148.95 225.823 148.715 225.989 148.377 226.087ZM149.504 221.808C149.716 221.746 149.887 221.641 150.017 221.493C150.152 221.334 150.237 221.135 150.274 220.894C150.308 220.645 150.278 220.347 150.183 219.999C150.039 219.47 149.833 219.12 149.567 218.95C149.298 218.773 149.006 218.73 148.691 218.821C148.479 218.883 148.304 218.989 148.167 219.139C148.03 219.29 147.944 219.49 147.91 219.738C147.873 219.979 147.904 220.277 148 220.633C148.142 221.155 148.348 221.504 148.617 221.682C148.886 221.86 149.182 221.902 149.504 221.808Z" fill="white"/>
<path d="M157.24 220.83C156.61 221.063 156.019 221.146 155.467 221.079C154.916 221.012 154.431 220.803 154.015 220.451C153.598 220.098 153.284 219.616 153.072 219.005C152.911 218.541 152.841 218.1 152.861 217.682C152.878 217.257 152.981 216.865 153.169 216.508C153.354 216.142 153.616 215.823 153.955 215.549C154.291 215.268 154.697 215.039 155.173 214.863C155.803 214.63 156.394 214.547 156.946 214.614C157.497 214.681 157.978 214.892 158.386 215.247C158.8 215.591 159.115 216.073 159.329 216.692C159.487 217.149 159.558 217.59 159.54 218.015C159.523 218.441 159.422 218.836 159.236 219.201C159.056 219.556 158.794 219.876 158.45 220.16C158.112 220.433 157.708 220.657 157.24 220.83ZM156.713 219.309C156.92 219.233 157.087 219.114 157.214 218.954C157.338 218.786 157.406 218.582 157.418 218.342C157.435 218.091 157.384 217.795 157.266 217.455C157.087 216.936 156.858 216.602 156.581 216.451C156.301 216.293 156.007 216.27 155.7 216.384C155.492 216.461 155.325 216.579 155.199 216.739C155.073 216.9 155.001 217.105 154.984 217.356C154.964 217.599 155.014 217.894 155.135 218.243C155.312 218.753 155.54 219.088 155.82 219.246C156.1 219.405 156.398 219.426 156.713 219.309Z" fill="white"/>
<path d="M163.958 217.951C163.705 218.067 163.459 218.107 163.221 218.072C162.98 218.029 162.748 217.901 162.523 217.689L159.413 214.668C159.216 214.479 159.092 214.283 159.041 214.081C158.987 213.872 159.011 213.677 159.111 213.496C159.216 213.304 159.403 213.147 159.671 213.024C159.902 212.919 160.116 212.888 160.313 212.933C160.507 212.97 160.732 213.12 160.986 213.382L163.277 215.737L163.043 215.845L162.861 212.268C162.848 212.031 162.886 211.838 162.974 211.69C163.066 211.531 163.213 211.406 163.414 211.314C163.63 211.215 163.822 211.186 163.991 211.226C164.159 211.266 164.323 211.366 164.481 211.528L166.92 214.073L166.719 214.165L166.555 210.756C166.537 210.422 166.589 210.169 166.711 209.996C166.829 209.816 166.982 209.683 167.168 209.598C167.421 209.482 167.641 209.454 167.827 209.513C168.012 209.572 168.154 209.697 168.253 209.885C168.359 210.071 168.412 210.299 168.412 210.569L168.485 214.951C168.493 215.262 168.432 215.524 168.3 215.737C168.169 215.951 167.977 216.115 167.723 216.231C167.463 216.35 167.212 216.388 166.971 216.345C166.737 216.299 166.508 216.169 166.284 215.957L163.725 213.413L164.541 213.04L164.698 216.654C164.71 216.973 164.656 217.241 164.535 217.458C164.411 217.668 164.219 217.832 163.958 217.951Z" fill="white"/>
<path d="M174.795 212.247C174.157 212.616 173.544 212.824 172.955 212.872C172.369 212.908 171.839 212.789 171.365 212.515C170.89 212.241 170.499 211.82 170.19 211.251C169.894 210.704 169.751 210.158 169.762 209.612C169.777 209.055 169.927 208.542 170.213 208.074C170.503 207.594 170.913 207.201 171.445 206.893C171.835 206.667 172.224 206.527 172.614 206.472C172.999 206.41 173.371 206.435 173.731 206.549C174.087 206.655 174.413 206.845 174.71 207.117C175.014 207.386 175.279 207.729 175.505 208.147C175.584 208.291 175.603 208.421 175.564 208.538C175.521 208.648 175.415 208.752 175.245 208.851L171.991 210.734L171.499 209.827L173.86 208.461L173.766 208.699C173.621 208.433 173.469 208.238 173.308 208.113C173.147 207.989 172.973 207.924 172.784 207.92C172.603 207.911 172.409 207.967 172.203 208.086C171.984 208.213 171.822 208.377 171.717 208.58C171.616 208.771 171.577 208.992 171.602 209.243C171.626 209.493 171.72 209.77 171.884 210.072L171.937 210.17C172.214 210.681 172.523 210.984 172.864 211.08C173.208 211.165 173.613 211.072 174.081 210.801C174.237 210.711 174.405 210.59 174.584 210.439C174.766 210.277 174.929 210.107 175.075 209.928C175.22 209.75 175.374 209.646 175.536 209.619C175.694 209.584 175.839 209.604 175.973 209.678C176.109 209.741 176.22 209.842 176.305 209.982C176.387 210.115 176.429 210.27 176.432 210.448C176.432 210.619 176.369 210.787 176.245 210.953C176.06 211.212 175.841 211.452 175.588 211.674C175.343 211.892 175.079 212.083 174.795 212.247Z" fill="white"/>
<path d="M178.922 209.584C178.622 209.783 178.341 209.858 178.077 209.807C177.821 209.751 177.597 209.571 177.407 209.265L175.256 205.814C175.07 205.515 175.002 205.236 175.052 204.976C175.109 204.712 175.281 204.485 175.567 204.294C175.854 204.104 176.122 204.038 176.371 204.098C176.621 204.158 176.839 204.338 177.025 204.637L177.292 205.064L177.189 205.132C176.998 204.67 176.966 204.224 177.094 203.795C177.229 203.361 177.503 202.997 177.917 202.701C178.11 202.563 178.29 202.518 178.454 202.565C178.622 202.602 178.8 202.763 178.988 203.051C179.144 203.301 179.217 203.533 179.205 203.747C179.194 203.961 179.054 204.177 178.785 204.395L178.563 204.573C178.223 204.848 178.025 205.127 177.97 205.409C177.91 205.685 177.984 205.99 178.192 206.323L179.258 208.033C179.449 208.339 179.515 208.624 179.458 208.888C179.401 209.152 179.222 209.384 178.922 209.584Z" fill="white"/>
<path d="M183.699 206.227C183.422 206.431 183.15 206.505 182.882 206.448C182.614 206.391 182.37 206.204 182.152 205.887L179.948 202.692C179.73 202.375 179.638 202.076 179.673 201.796C179.709 201.516 179.865 201.274 180.142 201.07C180.426 200.861 180.702 200.785 180.97 200.842C181.244 200.894 181.491 201.078 181.709 201.395L183.913 204.591C184.131 204.908 184.223 205.206 184.188 205.487C184.152 205.767 183.989 206.014 183.699 206.227ZM179.647 200.352C179.337 200.58 179.045 200.683 178.771 200.661C178.504 200.634 178.273 200.479 178.078 200.196C177.887 199.919 177.823 199.646 177.886 199.376C177.955 199.102 178.144 198.851 178.454 198.622C178.778 198.384 179.073 198.279 179.34 198.306C179.607 198.333 179.836 198.485 180.027 198.761C180.222 199.044 180.288 199.321 180.226 199.59C180.163 199.86 179.97 200.114 179.647 200.352Z" fill="white"/>
<path d="M186.684 203.933C186.415 204.147 186.151 204.238 185.891 204.205C185.631 204.172 185.393 204.011 185.177 203.723L182.739 200.469C182.527 200.187 182.436 199.915 182.463 199.651C182.498 199.383 182.649 199.141 182.918 198.926C183.186 198.712 183.447 198.623 183.701 198.662C183.955 198.7 184.187 198.86 184.398 199.142L184.745 199.604L184.337 199.285C184.26 198.854 184.3 198.444 184.459 198.055C184.624 197.661 184.889 197.319 185.253 197.027C185.631 196.725 185.998 196.553 186.354 196.509C186.705 196.459 187.059 196.542 187.416 196.76C187.768 196.971 188.121 197.312 188.475 197.784L190.022 199.848C190.238 200.137 190.329 200.415 190.295 200.684C190.261 200.952 190.106 201.196 189.831 201.416C189.556 201.636 189.288 201.729 189.028 201.696C188.768 201.663 188.53 201.503 188.314 201.214L186.819 199.218C186.598 198.923 186.389 198.755 186.194 198.712C186.005 198.664 185.814 198.717 185.622 198.87C185.366 199.075 185.225 199.324 185.2 199.617C185.169 199.904 185.259 200.188 185.47 200.47L186.885 202.357C187.327 202.947 187.26 203.472 186.684 203.933Z" fill="white"/>
<path d="M195.229 199.501C194.898 199.806 194.566 200.066 194.234 200.283C193.907 200.506 193.601 200.671 193.315 200.778C193.087 200.877 192.886 200.9 192.712 200.849C192.538 200.798 192.398 200.704 192.292 200.568C192.185 200.432 192.117 200.284 192.086 200.123C192.062 199.957 192.082 199.799 192.148 199.649C192.219 199.506 192.342 199.398 192.518 199.326C192.879 199.194 193.182 199.043 193.426 198.875C193.675 198.712 193.874 198.562 194.025 198.423C194.393 198.085 194.598 197.752 194.639 197.424C194.693 197.097 194.575 196.766 194.286 196.431L193.781 195.845L193.853 195.779C193.987 196.122 193.988 196.506 193.855 196.928C193.717 197.344 193.485 197.702 193.159 198.002C192.762 198.368 192.335 198.593 191.879 198.679C191.418 198.758 190.956 198.705 190.493 198.519C190.036 198.327 189.61 198.002 189.214 197.543C188.915 197.196 188.693 196.838 188.549 196.47C188.405 196.102 188.332 195.741 188.329 195.388C188.333 195.028 188.41 194.685 188.56 194.358C188.711 194.019 188.934 193.714 189.23 193.442C189.567 193.131 189.938 192.935 190.342 192.852C190.753 192.764 191.115 192.809 191.43 192.986L191.669 193.451L191.316 193.041C191.086 192.774 190.979 192.506 190.994 192.236C191.016 191.96 191.153 191.706 191.407 191.473C191.66 191.24 191.914 191.134 192.17 191.155C192.431 191.17 192.677 191.311 192.907 191.577L195.682 194.797C196.366 195.591 196.663 196.387 196.571 197.183C196.484 197.985 196.037 198.758 195.229 199.501ZM192.606 196.325C192.787 196.159 192.906 195.977 192.963 195.78C193.015 195.577 193.01 195.364 192.949 195.143C192.882 194.915 192.752 194.689 192.56 194.466C192.271 194.131 191.968 193.942 191.651 193.901C191.334 193.859 191.043 193.96 190.778 194.203C190.609 194.359 190.496 194.541 190.438 194.75C190.375 194.952 190.376 195.167 190.443 195.395C190.511 195.611 190.64 195.831 190.833 196.054C191.122 196.389 191.425 196.578 191.742 196.62C192.059 196.662 192.347 196.564 192.606 196.325Z" fill="white"/>
<path d="M201.074 190.242C200.836 190.513 200.577 190.658 200.299 190.677C200.02 190.684 199.743 190.559 199.468 190.301L194.777 185.893C194.502 185.635 194.358 185.365 194.345 185.083C194.331 184.789 194.451 184.498 194.705 184.209L197.408 181.138C197.603 180.917 197.803 180.801 198.007 180.792C198.212 180.782 198.416 180.872 198.619 181.063C198.828 181.259 198.94 181.466 198.956 181.683C198.967 181.895 198.874 182.111 198.679 182.333L196.691 184.592L197.962 185.786L199.772 183.73C199.962 183.515 200.159 183.402 200.364 183.393C200.574 183.377 200.78 183.464 200.983 183.655C201.192 183.851 201.299 184.058 201.304 184.276C201.314 184.487 201.224 184.701 201.035 184.916L199.225 186.972L200.962 188.604C201.529 189.137 201.566 189.683 201.074 190.242Z" fill="white"/>
<path d="M206.232 183.98C205.947 184.35 205.629 184.623 205.276 184.799C204.928 184.969 204.578 185.041 204.225 185.016C203.871 184.98 203.546 184.839 203.248 184.595C202.907 184.314 202.708 184.002 202.651 183.659C202.595 183.317 202.681 182.91 202.908 182.44C203.129 181.965 203.497 181.393 204.012 180.725L204.424 180.19L205.221 180.845L204.809 181.38C204.614 181.633 204.471 181.86 204.379 182.06C204.286 182.248 204.247 182.412 204.263 182.552C204.273 182.687 204.335 182.802 204.448 182.895C204.594 183.015 204.754 183.062 204.929 183.036C205.109 183.004 205.276 182.887 205.431 182.686C205.556 182.524 205.631 182.352 205.656 182.172C205.687 181.985 205.672 181.803 205.612 181.626C205.545 181.444 205.429 181.286 205.265 181.151L204.164 180.246C203.936 180.059 203.727 179.988 203.537 180.033C203.353 180.072 203.148 180.237 202.923 180.529C202.803 180.685 202.687 180.876 202.575 181.102C202.457 181.322 202.35 181.589 202.253 181.902C202.182 182.129 202.076 182.286 201.937 182.373C201.798 182.46 201.647 182.495 201.484 182.478C201.327 182.454 201.185 182.391 201.058 182.287C200.937 182.176 200.849 182.035 200.795 181.864C200.746 181.686 200.755 181.487 200.822 181.266C200.948 180.861 201.092 180.513 201.253 180.222C201.42 179.925 201.589 179.666 201.759 179.445C202.168 178.913 202.581 178.538 202.998 178.318C203.413 178.088 203.841 178.015 204.281 178.101C204.72 178.176 205.179 178.41 205.66 178.806L207.578 180.381C207.856 180.61 208.015 180.852 208.056 181.108C208.097 181.364 208.017 181.622 207.817 181.881C207.612 182.147 207.382 182.292 207.127 182.315C206.876 182.332 206.612 182.226 206.333 181.997L206.087 181.794L206.264 181.845C206.442 182.044 206.559 182.261 206.614 182.498C206.67 182.734 206.666 182.98 206.604 183.236C206.541 183.492 206.417 183.74 206.232 183.98Z" fill="white"/>
<path d="M210.149 178.438C209.948 178.738 209.717 178.914 209.454 178.968C209.196 179.015 208.92 178.934 208.627 178.724L205.32 176.359C205.033 176.154 204.863 175.922 204.81 175.663C204.762 175.397 204.834 175.121 205.025 174.835C205.217 174.549 205.439 174.386 205.693 174.346C205.946 174.306 206.216 174.388 206.503 174.593L206.912 174.886L206.844 174.988C206.49 174.634 206.29 174.235 206.243 173.789C206.202 173.336 206.315 172.894 206.585 172.463C206.71 172.261 206.858 172.15 207.029 172.131C207.197 172.101 207.423 172.182 207.708 172.375C207.947 172.547 208.103 172.734 208.175 172.936C208.246 173.138 208.199 173.391 208.035 173.696L207.897 173.945C207.689 174.33 207.613 174.663 207.671 174.945C207.721 175.223 207.906 175.476 208.226 175.705L209.865 176.877C210.158 177.086 210.329 177.324 210.377 177.59C210.425 177.856 210.349 178.139 210.149 178.438Z" fill="white"/>
<path d="M212.948 174.038C212.774 174.334 212.559 174.514 212.304 174.576C212.049 174.638 211.769 174.573 211.464 174.382L208.019 172.221C207.721 172.034 207.538 171.812 207.47 171.557C207.405 171.294 207.461 171.015 207.635 170.718C207.809 170.422 208.022 170.246 208.273 170.191C208.524 170.136 208.798 170.202 209.096 170.389L209.669 170.748L209.09 170.544C208.872 170.205 208.758 169.833 208.748 169.431C208.735 169.017 208.847 168.608 209.083 168.206C209.308 167.825 209.589 167.557 209.927 167.401C210.269 167.239 210.659 167.214 211.097 167.324L211.01 167.472C210.766 167.097 210.642 166.686 210.639 166.239C210.635 165.792 210.75 165.371 210.982 164.976C211.223 164.566 211.5 164.281 211.813 164.12C212.119 163.955 212.476 163.913 212.884 163.995C213.289 164.065 213.741 164.257 214.24 164.57L216.426 165.941C216.731 166.133 216.914 166.364 216.974 166.633C217.038 166.896 216.98 167.179 216.802 167.482C216.628 167.779 216.413 167.958 216.158 168.02C215.903 168.083 215.623 168.018 215.318 167.827L213.184 166.488C212.886 166.301 212.644 166.212 212.458 166.221C212.272 166.23 212.117 166.34 211.993 166.552C211.839 166.814 211.811 167.071 211.908 167.326C212.01 167.573 212.227 167.801 212.56 168.01L214.496 169.224C214.801 169.416 214.986 169.643 215.05 169.905C215.114 170.168 215.057 170.451 214.878 170.755C214.7 171.058 214.483 171.241 214.228 171.303C213.973 171.366 213.693 171.301 213.388 171.11L211.254 169.771C210.956 169.584 210.714 169.495 210.528 169.504C210.342 169.513 210.187 169.623 210.063 169.835C209.913 170.089 209.887 170.344 209.985 170.598C210.086 170.845 210.303 171.074 210.636 171.282L212.572 172.497C213.196 172.889 213.322 173.402 212.948 174.038Z" fill="white"/>
<path d="M219.647 161.159C219.339 161.829 218.958 162.353 218.504 162.732C218.046 163.1 217.544 163.31 216.998 163.361C216.452 163.412 215.888 163.294 215.307 163.009C214.749 162.735 214.316 162.372 214.01 161.921C213.7 161.458 213.527 160.954 213.491 160.406C213.45 159.848 213.558 159.29 213.815 158.732C214.003 158.323 214.241 157.984 214.527 157.714C214.806 157.44 215.125 157.246 215.485 157.131C215.837 157.012 216.213 156.978 216.613 157.028C217.017 157.072 217.432 157.198 217.858 157.407C218.005 157.48 218.097 157.575 218.133 157.693C218.161 157.807 218.134 157.953 218.052 158.132L216.481 161.547L215.554 161.092L216.695 158.614L216.756 158.863C216.484 158.73 216.246 158.659 216.043 158.65C215.84 158.641 215.66 158.69 215.503 158.795C215.35 158.893 215.223 159.05 215.124 159.266C215.018 159.497 214.981 159.724 215.012 159.95C215.04 160.164 215.136 160.366 215.301 160.557C215.465 160.747 215.702 160.918 216.011 161.07L216.11 161.118C216.632 161.375 217.06 161.444 217.394 161.325C217.724 161.195 218.002 160.885 218.228 160.394C218.303 160.23 218.371 160.035 218.43 159.809C218.485 159.571 218.52 159.338 218.536 159.108C218.551 158.879 218.617 158.706 218.734 158.59C218.843 158.47 218.973 158.402 219.125 158.385C219.273 158.358 219.422 158.376 219.573 158.441C219.716 158.502 219.84 158.604 219.946 158.747C220.044 158.887 220.09 159.06 220.085 159.267C220.083 159.585 220.042 159.908 219.964 160.234C219.89 160.553 219.784 160.861 219.647 161.159Z" fill="white"/>
<path d="M221.516 156.467C221.387 156.803 221.2 157.027 220.955 157.139C220.713 157.243 220.425 157.227 220.092 157.09L216.331 155.544C216.005 155.41 215.788 155.223 215.678 154.983C215.572 154.736 215.58 154.451 215.704 154.13C215.828 153.809 216.009 153.601 216.248 153.504C216.487 153.408 216.769 153.426 217.095 153.56L217.561 153.752L217.517 153.866C217.092 153.603 216.807 153.26 216.662 152.838C216.521 152.408 216.534 151.953 216.701 151.473C216.779 151.248 216.899 151.107 217.062 151.05C217.219 150.982 217.459 151.01 217.78 151.133C218.053 151.245 218.246 151.391 218.361 151.571C218.476 151.751 218.487 152.008 218.394 152.341L218.315 152.614C218.197 153.035 218.197 153.376 218.316 153.637C218.427 153.895 218.664 154.099 219.028 154.249L220.891 155.015C221.224 155.152 221.444 155.344 221.551 155.591C221.657 155.839 221.646 156.13 221.516 156.467Z" fill="white"/>
<path d="M223.864 149.802C223.752 150.144 223.611 150.485 223.44 150.825C223.28 151.159 223.087 151.447 222.861 151.69C222.721 151.858 222.571 151.961 222.411 152.001C222.254 152.034 222.102 152.024 221.955 151.973C221.811 151.914 221.693 151.826 221.603 151.707C221.507 151.579 221.457 151.44 221.454 151.292C221.445 151.133 221.5 150.978 221.618 150.828C221.84 150.542 222.021 150.279 222.158 150.041C222.291 149.792 222.397 149.547 222.475 149.306C222.569 149.018 222.598 148.798 222.561 148.647C222.516 148.492 222.428 148.392 222.297 148.347C222.181 148.306 222.078 148.318 221.988 148.382C221.901 148.439 221.822 148.537 221.75 148.677L221.119 149.901C220.877 150.354 220.581 150.667 220.232 150.841C219.875 151.011 219.48 151.021 219.046 150.871C218.644 150.731 218.337 150.498 218.124 150.173C217.906 149.837 217.784 149.444 217.759 148.993C217.729 148.531 217.798 148.04 217.968 147.518C218.082 147.168 218.213 146.858 218.361 146.589C218.502 146.317 218.682 146.067 218.902 145.84C219.028 145.693 219.167 145.607 219.322 145.583C219.476 145.559 219.624 145.58 219.766 145.647C219.9 145.711 220.015 145.807 220.111 145.936C220.202 146.054 220.248 146.191 220.248 146.347C220.241 146.501 220.176 146.66 220.054 146.826C219.869 147.048 219.721 147.252 219.609 147.438C219.499 147.617 219.416 147.792 219.36 147.963C219.256 148.282 219.225 148.523 219.267 148.685C219.309 148.847 219.396 148.951 219.528 148.996C219.628 149.031 219.725 149.026 219.817 148.98C219.902 148.932 219.98 148.837 220.051 148.697L220.694 147.477C220.934 147.006 221.228 146.684 221.577 146.51C221.921 146.326 222.314 146.311 222.755 146.464C223.381 146.682 223.79 147.093 223.981 147.697C224.164 148.298 224.125 149 223.864 149.802Z" fill="white"/>
<circle cx="118" cy="118" r="95" fill="#400707"/>
<path d="M53.6626 130.694L58.1058 106.997L58.5346 104.97H66.8754L61.9645 130.694H53.6626ZM77.7887 128.395C77.0872 130.447 75.3852 131.474 72.6829 131.474C70.6821 131.474 68.9931 130.279 67.616 127.888C66.2129 125.498 65.3814 122.353 65.1215 118.456C67.9798 113.233 70.3963 109.543 72.3711 107.387C74.2679 105.334 76.2037 104.308 78.1785 104.308C79.2438 104.308 80.1533 104.593 80.9068 105.165C81.6863 105.737 82.167 106.477 82.3489 107.387C81.4655 107.75 80.8159 108.075 80.4001 108.361C79.3608 109.141 78.1395 110.401 76.7364 112.142L73.1896 116.39C72.6179 117.066 72.2152 117.559 71.9813 117.871C72.3711 120.054 73.1506 122.224 74.3199 124.38C75.4372 126.433 76.5935 127.771 77.7887 128.395ZM90.4681 128.551C89.6626 130.499 87.9736 131.474 85.4012 131.474C84.076 131.474 82.9977 131.019 82.1662 130.11C81.4646 129.304 81.1139 128.499 81.1139 127.693C81.1139 125.588 81.5946 122.483 82.556 118.378L83.9981 110.817L91.9102 110.037L89.5327 122.353C89.091 124.276 88.8701 125.575 88.8701 126.251C88.8701 127.732 89.4028 128.499 90.4681 128.551ZM84.6997 105.399C84.6997 104.386 85.1154 103.606 85.9469 103.06C86.8044 102.515 87.8437 102.242 89.065 102.242C90.2862 102.242 91.2606 102.515 91.9882 103.06C92.7417 103.606 93.1185 104.386 93.1185 105.399C93.1185 106.412 92.7027 107.179 91.8712 107.698C91.0657 108.218 90.0524 108.478 88.8311 108.478C87.6099 108.478 86.6095 108.218 85.83 107.698C85.0764 107.179 84.6997 106.412 84.6997 105.399ZM101.272 131.084C100.051 130.824 99.1154 130.642 98.4658 130.538C97.8422 130.409 97.1536 130.344 96.4001 130.344C95.6725 130.344 94.945 130.473 94.2174 130.733C93.8277 130.499 93.5029 130.149 93.243 129.681C93.0092 129.213 92.8922 128.616 92.8922 127.888C92.8922 126.355 93.6717 125.004 95.2308 123.835L105.131 116.702C103.286 116.182 101.519 115.922 99.83 115.922C98.167 115.922 97.0367 116.494 96.439 117.637C95.5556 116.598 95.1139 115.26 95.1139 113.623C95.1139 112.532 95.5036 111.635 96.2831 110.934C97.0886 110.206 98.3229 109.842 99.9859 109.842C100.921 109.842 101.805 109.907 102.636 110.037C103.494 110.141 104.299 110.245 105.053 110.349L107.157 110.661C107.833 110.765 108.509 110.817 109.184 110.817C109.886 110.817 110.496 110.674 111.016 110.388C111.692 111.011 112.029 111.752 112.029 112.609C112.029 113.961 111.198 115.338 109.535 116.741L99.6741 124.107C101.701 124.705 103.234 125.004 104.273 125.004C106.456 125.004 108.015 124.484 108.95 123.445C109.678 124.276 110.042 125.42 110.042 126.875C110.042 128.304 109.574 129.434 108.639 130.266C107.703 131.071 106.391 131.474 104.702 131.474C103.663 131.474 102.519 131.344 101.272 131.084ZM125.94 129.057C124.693 130.668 122.523 131.474 119.431 131.474C117.82 131.474 116.43 130.993 115.261 130.032C114.092 129.044 113.507 127.849 113.507 126.446C113.507 125.666 113.546 125.082 113.624 124.692L116.235 110.817L124.147 110.037L121.302 125.082C121.198 125.653 121.146 126.108 121.146 126.446C121.146 127.953 121.601 128.707 122.51 128.707C123.524 128.707 124.394 128.018 125.122 126.641C125.356 126.199 125.524 125.692 125.628 125.121L128.396 110.817L136.074 110.037L133.19 125.238C133.112 125.627 133.073 126.03 133.073 126.446C133.073 126.862 133.19 127.303 133.424 127.771C133.657 128.213 134.151 128.486 134.905 128.59C134.749 129.213 134.398 129.733 133.852 130.149C132.709 131.032 131.514 131.474 130.267 131.474C129.045 131.474 128.071 131.253 127.343 130.811C126.616 130.37 126.148 129.785 125.94 129.057ZM154.656 131.474C151.512 131.474 149.94 130.253 149.94 127.81C149.966 127.135 150.083 126.225 150.291 125.082L150.993 121.496C151.694 118.118 152.045 116.052 152.045 115.299C152.045 113.792 151.603 113.038 150.72 113.038C149.239 113.038 148.108 114.974 147.329 118.846L145.029 130.694L137.195 131.474L141.249 110.778L147.641 110.037L147.017 113.857C148.238 111.31 150.72 110.037 154.462 110.037C156.28 110.037 157.567 110.427 158.32 111.206C159.1 111.96 159.489 113.194 159.489 114.909C159.489 116.52 159.074 119.209 158.242 122.977C157.852 124.666 157.658 125.835 157.658 126.485C157.658 127.109 157.826 127.602 158.164 127.966C158.528 128.33 158.97 128.538 159.489 128.59C159.23 129.473 158.645 130.175 157.736 130.694C156.852 131.214 155.826 131.474 154.656 131.474ZM164.282 129.525C163.684 128.849 163.242 127.979 162.956 126.914C162.697 125.848 162.567 124.445 162.567 122.704C162.567 120.963 162.866 119.3 163.463 117.715C164.061 116.13 164.905 114.766 165.997 113.623C168.231 111.232 171.193 110.037 174.883 110.037C176.208 110.037 177.352 110.258 178.313 110.7L184.978 110.037L182.094 125.238C182.016 125.55 181.977 125.991 181.977 126.563C181.977 127.135 182.146 127.602 182.483 127.966C182.847 128.33 183.289 128.538 183.809 128.59C183.549 129.473 182.938 130.175 181.977 130.694C181.041 131.214 180.041 131.474 178.976 131.474C177.91 131.474 177.014 131.266 176.286 130.85C175.585 130.46 175.13 129.928 174.922 129.252C174.506 129.902 173.857 130.434 172.973 130.85C172.09 131.266 171.05 131.474 169.855 131.474C168.686 131.474 167.621 131.318 166.659 131.006C165.698 130.694 164.905 130.201 164.282 129.525ZM172.506 113.701C172.22 114.169 171.947 114.805 171.687 115.611C171.427 116.39 171.076 117.845 170.635 119.976C170.219 122.081 170.011 123.887 170.011 125.394C170.011 126.901 170.128 127.875 170.362 128.317C170.596 128.759 170.921 128.979 171.336 128.979C172.168 128.979 172.882 128.59 173.48 127.81C174.104 127.005 174.532 125.9 174.766 124.497L176.832 113.077C176.286 112.609 175.689 112.376 175.039 112.376C174.415 112.376 173.909 112.48 173.519 112.687C173.155 112.895 172.817 113.233 172.506 113.701Z" fill="white"/>
<path d="M106.286 69.8189C105.407 73.6231 105.6 77.9856 108.173 81.2693C108.469 81.6442 108.846 82.0123 109.254 82.3714C111.18 81.7245 113.064 81.3805 114.996 81.3166C116.653 81.2663 118.244 81.3895 119.777 81.6464C119.597 81.2528 119.383 80.8696 119.142 80.494C118.178 78.9983 117.022 77.5131 115.948 76.0076C117.158 77.178 118.757 78.2628 119.826 79.4941C120.491 80.2634 121.002 81.098 121.4 81.9717C124.197 82.6087 126.823 83.6379 129.382 84.7393C129.623 81.0033 127.265 76.5613 124.965 73.856C122.562 71.0306 119.011 68.8468 115.678 66.5142C113.632 65.0853 111.802 63.0539 110.701 61.2705C110.451 60.8648 109.781 60.9279 109.62 61.3719C108.614 64.144 106.94 66.9784 106.286 69.8189Z" fill="#90BD32"/>
<path d="M144.57 90.8408C138.989 90.3854 134.129 87.9874 129.189 85.8544C126.778 84.8142 124.346 83.8357 121.805 83.1817C121.253 83.0394 120.692 82.9107 120.126 82.8023C118.449 82.4757 116.712 82.3086 114.893 82.3673C113.192 82.42 111.588 82.718 110.064 83.1802C107.632 83.9185 105.403 85.0874 103.275 86.4068C99.4061 88.8011 96.0805 91.7854 93.4886 95.1543C92.4371 96.5211 91.3183 97.9279 90.6473 99.4625C90.5017 99.8012 90.2859 100.217 90.3824 100.583C90.5044 101.063 91.3757 101.127 91.5687 100.638C92.9133 97.1744 96.3236 94.154 100.007 92.1873C104.241 89.9248 108.938 89.8013 113.725 90.8054C114.998 91.0711 116.261 91.3895 117.529 91.7304C117.555 91.7357 117.576 91.7477 117.6 91.759C117.811 91.8772 117.69 92.185 117.404 92.1436C115.772 91.9103 114.145 91.6853 112.545 91.5317C104.714 90.7828 97.4224 95.1754 99.5918 96.3909C99.7675 96.4895 100.007 96.5678 100.312 96.6175C104.595 97.3491 108.578 99.5672 112.715 101.065C114.17 101.595 115.647 102.033 117.162 102.288C123.18 103.301 129.129 102.016 134.246 99.3293C138.064 97.3227 141.392 94.2925 144.938 91.9728C145.393 91.6777 145.335 91.1704 144.94 90.9499C144.843 90.8905 144.718 90.8513 144.57 90.8408Z" fill="#90BD32"/>
<path d="M91.5505 90.6369H51.0688C51.0688 95.4152 46.1684 99.072 40 99.072V129.609C46.1684 129.609 51.0688 133.642 51.0688 137.737H183.732C183.732 133.642 188.924 129.609 195.092 129.609V99.072C188.924 99.072 183.732 95.4152 183.732 90.6369H148.829" stroke="white" stroke-width="2.31826" stroke-miterlimit="10"/>
<g clip-path="url(#clip0_353_13992)">
<path d="M49.4951 138.952C49.4951 138.728 49.6769 138.546 49.9011 138.546H184.693C184.917 138.546 185.099 138.728 185.099 138.952V156.816C185.099 162.197 180.737 166.56 175.355 166.56H59.2391C53.8577 166.56 49.4951 162.197 49.4951 156.816V138.952Z" fill="#E28743"/>
<path d="M71.3449 158.106L70.0781 148.966L70.0002 148.791L69.1817 145.244H72.709L73.7224 152.981H73.7809L77.6005 145.263H81.1084L77.6005 148.986L73.1572 158.106H71.3449ZM65.1087 158.593C64.7059 158.593 64.3811 158.463 64.1343 158.203C63.9004 157.957 63.79 157.677 63.803 157.365C63.803 157.184 63.842 157.015 63.9199 156.859C64.3747 156.82 64.7904 156.631 65.1672 156.294C65.5439 155.956 65.8947 155.501 66.2195 154.929C66.5443 154.345 66.8431 153.682 67.116 152.942C67.3888 152.188 67.6421 151.389 67.876 150.545C68.1099 149.687 68.3307 148.81 68.5386 147.914C68.7465 147.004 68.9413 146.114 69.1232 145.244L70.3315 147.641C70.0457 149.434 69.7403 150.967 69.4155 152.24C69.0907 153.513 68.753 154.566 68.4022 155.397C68.0514 156.216 67.6941 156.859 67.3303 157.326C66.9666 157.781 66.5963 158.106 66.2195 158.301C65.8427 158.496 65.4725 158.593 65.1087 158.593ZM64.4851 151.168C63.9394 151.168 63.4847 151.051 63.1209 150.817C62.7701 150.584 62.5103 150.272 62.3414 149.882C62.1725 149.479 62.0946 149.044 62.1075 148.576C62.1205 148.109 62.2245 147.647 62.4194 147.193C62.6142 146.725 62.9066 146.303 63.2963 145.926C63.6861 145.549 64.1733 145.244 64.7579 145.01C65.3426 144.776 66.0376 144.659 66.8431 144.659C67.5837 144.659 68.2593 144.711 68.8699 144.815C69.4805 144.906 70.0911 144.997 70.7018 145.088C71.3124 145.179 71.975 145.231 72.6895 145.244L71.1695 147.037L68.9283 146.238L68.8309 146.062C68.4671 145.945 68.1099 145.887 67.7591 145.887C67.0705 145.887 66.4988 146.114 66.0441 146.569C65.5894 147.024 65.3491 147.667 65.3231 148.498C65.3231 148.875 65.3491 149.232 65.401 149.57C65.466 149.895 65.5959 150.259 65.7908 150.662C65.5959 150.843 65.375 150.973 65.1282 151.051C64.8943 151.129 64.68 151.168 64.4851 151.168ZM79.0231 161.205C78.6853 161.205 78.367 161.14 78.0682 161.01C77.7694 160.88 77.5096 160.652 77.2887 160.328C77.0808 160.003 76.9184 159.535 76.8015 158.924C76.6976 158.327 76.6586 157.554 76.6846 156.605C76.7106 155.956 76.7625 155.202 76.8405 154.345C76.9314 153.487 77.0678 152.519 77.2497 151.441C77.4316 150.363 77.672 149.18 77.9708 147.894L77.8928 147.427L77.6005 145.263H81.1473C81.0434 146.03 80.933 146.835 80.816 147.68C80.6991 148.524 80.5822 149.369 80.4652 150.213C80.3613 151.058 80.2704 151.883 80.1924 152.688C80.1275 153.494 80.0885 154.254 80.0755 154.968C80.0365 156.164 80.095 157.184 80.2509 158.028C80.4068 158.872 80.7056 159.438 81.1473 159.723C81.1213 159.931 81.0044 160.146 80.7965 160.367C80.6017 160.6 80.3483 160.795 80.0365 160.951C79.7247 161.12 79.3869 161.205 79.0231 161.205ZM84.1084 158.496C83.5108 158.496 83.0236 158.346 82.6468 158.047C82.2831 157.736 82.1012 157.274 82.1012 156.664C82.1012 156.43 82.1207 156.138 82.1596 155.787C82.2116 155.423 82.2701 155.046 82.335 154.657C82.413 154.254 82.4844 153.877 82.5494 153.526C82.6273 153.175 82.6923 152.883 82.7443 152.649L83.6212 148.167L87.1291 147.816L85.6285 155.417C85.6155 155.521 85.596 155.65 85.57 155.806C85.5441 155.962 85.5311 156.105 85.5311 156.235C85.5311 156.469 85.596 156.683 85.7259 156.878C85.8559 157.06 86.0702 157.158 86.369 157.171C86.2261 157.625 85.9338 157.957 85.4921 158.164C85.0504 158.385 84.5891 158.496 84.1084 158.496ZM85.9208 146.569C85.3622 146.569 84.9009 146.446 84.5372 146.199C84.1734 145.952 83.9915 145.595 83.9915 145.127C83.9915 144.633 84.1799 144.263 84.5567 144.016C84.9464 143.756 85.4206 143.626 85.9793 143.626C86.5249 143.626 86.9732 143.756 87.324 144.016C87.6747 144.263 87.8501 144.62 87.8501 145.088C87.8501 145.582 87.6617 145.952 87.285 146.199C86.9212 146.446 86.4665 146.569 85.9208 146.569ZM89.8146 158.496C89.23 158.496 88.7493 158.346 88.3725 158.047C87.9957 157.736 87.8074 157.274 87.8074 156.664C87.8074 156.404 87.8333 156.073 87.8853 155.67C87.9503 155.267 88.0282 154.825 88.1192 154.345C88.2101 153.851 88.314 153.331 88.431 152.786C88.5479 152.24 88.6648 151.694 88.7818 151.149C88.8987 150.603 89.0091 150.077 89.113 149.57C89.23 149.051 89.3274 148.576 89.4054 148.148C89.5483 147.407 89.6522 146.764 89.7172 146.218C89.7951 145.673 89.8341 145.211 89.8341 144.835C89.8341 144.64 89.8211 144.464 89.7951 144.308C89.7821 144.14 89.7562 143.997 89.7172 143.88C89.977 143.737 90.2693 143.626 90.5941 143.548C90.9319 143.457 91.2567 143.412 91.5685 143.412C92.0233 143.412 92.426 143.529 92.7768 143.763C93.1276 143.984 93.303 144.386 93.303 144.971C93.303 145.114 93.2835 145.328 93.2445 145.614C93.2185 145.887 93.173 146.205 93.1081 146.569C93.0561 146.933 92.9847 147.329 92.8937 147.758C92.8158 148.174 92.7313 148.602 92.6404 149.044C92.3675 150.369 92.1402 151.454 91.9583 152.299C91.7894 153.143 91.653 153.819 91.549 154.325C91.4581 154.819 91.3866 155.189 91.3347 155.436C91.2957 155.683 91.2697 155.858 91.2567 155.962C91.2437 156.066 91.2372 156.157 91.2372 156.235C91.2372 156.469 91.3022 156.683 91.4321 156.878C91.562 157.06 91.7699 157.158 92.0557 157.171C91.9778 157.482 91.8154 157.736 91.5685 157.931C91.3347 158.125 91.0618 158.268 90.75 158.359C90.4512 158.45 90.1394 158.496 89.8146 158.496ZM95.4669 158.496C94.8823 158.496 94.4016 158.346 94.0248 158.047C93.648 157.736 93.4596 157.274 93.4596 156.664C93.4596 156.404 93.4856 156.073 93.5376 155.67C93.6025 155.267 93.6805 154.825 93.7714 154.345C93.8624 153.851 93.9663 153.331 94.0832 152.786C94.2002 152.24 94.3171 151.694 94.434 151.149C94.551 150.603 94.6614 150.077 94.7653 149.57C94.8823 149.051 94.9797 148.576 95.0576 148.148C95.2006 147.407 95.3045 146.764 95.3695 146.218C95.4474 145.673 95.4864 145.211 95.4864 144.835C95.4864 144.64 95.4734 144.464 95.4474 144.308C95.4344 144.14 95.4084 143.997 95.3695 143.88C95.6293 143.737 95.9216 143.626 96.2464 143.548C96.5842 143.457 96.909 143.412 97.2208 143.412C97.6755 143.412 98.0783 143.529 98.4291 143.763C98.7799 143.984 98.9552 144.386 98.9552 144.971C98.9552 145.114 98.9358 145.328 98.8968 145.614C98.8708 145.887 98.8253 146.205 98.7604 146.569C98.7084 146.933 98.6369 147.329 98.546 147.758C98.468 148.174 98.3836 148.602 98.2927 149.044C98.0198 150.369 97.7925 151.454 97.6106 152.299C97.4417 153.143 97.3053 153.819 97.2013 154.325C97.1104 154.819 97.0389 155.189 96.987 155.436C96.948 155.683 96.922 155.858 96.909 155.962C96.896 156.066 96.8895 156.157 96.8895 156.235C96.8895 156.469 96.9545 156.683 97.0844 156.878C97.2143 157.06 97.4222 157.158 97.708 157.171C97.6301 157.482 97.4677 157.736 97.2208 157.931C96.987 158.125 96.7141 158.268 96.4023 158.359C96.1035 158.45 95.7917 158.496 95.4669 158.496ZM103.146 158.496C102.353 158.496 101.652 158.353 101.041 158.067C100.444 157.781 99.9759 157.346 99.6381 156.761C99.3003 156.164 99.1314 155.404 99.1314 154.481C99.1314 153.637 99.2483 152.818 99.4822 152.026C99.729 151.233 100.099 150.519 100.593 149.882C101.1 149.232 101.743 148.719 102.522 148.342C103.302 147.966 104.224 147.777 105.29 147.777C105.848 147.777 106.361 147.849 106.829 147.992C107.31 148.122 107.7 148.362 107.998 148.713C108.297 149.051 108.447 149.538 108.447 150.174C108.447 150.837 108.252 151.409 107.862 151.889C107.485 152.37 106.927 152.747 106.186 153.02C105.459 153.292 104.569 153.455 103.516 153.507C103.347 153.507 103.172 153.507 102.99 153.507C102.821 153.507 102.659 153.507 102.503 153.507C102.49 153.663 102.477 153.825 102.464 153.994C102.451 154.15 102.444 154.293 102.444 154.423C102.444 154.994 102.568 155.443 102.815 155.767C103.061 156.079 103.49 156.235 104.101 156.235C104.608 156.235 105.108 156.125 105.601 155.904C106.095 155.683 106.465 155.358 106.712 154.929C106.894 155.033 107.018 155.163 107.083 155.319C107.16 155.462 107.199 155.637 107.199 155.845C107.199 156.365 107.011 156.826 106.634 157.229C106.271 157.632 105.777 157.944 105.153 158.164C104.543 158.385 103.873 158.496 103.146 158.496ZM102.62 152.63C103.074 152.63 103.484 152.565 103.847 152.435C104.224 152.305 104.549 152.123 104.822 151.889C105.095 151.642 105.303 151.35 105.446 151.012C105.588 150.675 105.66 150.298 105.66 149.882C105.66 149.544 105.595 149.284 105.465 149.103C105.348 148.908 105.147 148.81 104.861 148.81C104.614 148.81 104.374 148.895 104.14 149.064C103.906 149.232 103.692 149.479 103.497 149.804C103.315 150.129 103.146 150.532 102.99 151.012C102.847 151.48 102.724 152.019 102.62 152.63ZM111.255 158.496C110.684 158.496 110.19 158.34 109.774 158.028C109.371 157.716 109.17 157.261 109.17 156.664C109.17 156.404 109.202 156.066 109.267 155.65C109.332 155.222 109.404 154.774 109.482 154.306C109.573 153.838 109.664 153.39 109.755 152.961C109.846 152.532 109.911 152.182 109.95 151.909L110.534 149.044H109.326L109.404 148.459C110.131 148.226 110.859 147.907 111.587 147.504C112.327 147.102 113.029 146.634 113.691 146.101H114.549L114.1 148.167H115.621L115.445 149.044H113.945L112.756 155.163C112.73 155.345 112.704 155.521 112.678 155.689C112.652 155.845 112.632 156.001 112.619 156.157C112.619 156.599 112.723 156.891 112.931 157.034C113.139 157.164 113.438 157.184 113.828 157.093C113.659 157.482 113.438 157.781 113.165 157.989C112.892 158.184 112.587 158.314 112.249 158.379C111.924 158.457 111.593 158.496 111.255 158.496ZM121.196 150.934C120.651 150.934 120.19 150.817 119.813 150.584C119.449 150.337 119.176 150.012 118.994 149.609C118.825 149.206 118.741 148.765 118.741 148.284C118.741 147.673 118.903 147.069 119.228 146.472C119.553 145.874 120.053 145.38 120.729 144.991C121.417 144.588 122.294 144.386 123.36 144.386C124.139 144.386 124.867 144.445 125.542 144.562C126.231 144.666 126.887 144.776 127.51 144.893C128.134 145.01 128.719 145.068 129.264 145.068C129.771 145.068 130.232 145.004 130.648 144.874C131.077 144.744 131.48 144.497 131.856 144.133C132.051 144.302 132.201 144.516 132.305 144.776C132.421 145.023 132.48 145.283 132.48 145.556C132.48 145.867 132.402 146.173 132.246 146.472C132.103 146.77 131.863 147.017 131.525 147.212C131.187 147.394 130.752 147.485 130.219 147.485C129.739 147.485 129.264 147.446 128.797 147.368C128.342 147.277 127.848 147.141 127.316 146.959C126.796 146.764 126.192 146.511 125.503 146.199L125.484 146.023C125.211 145.906 124.964 145.822 124.743 145.77C124.522 145.718 124.295 145.692 124.061 145.692C123.438 145.692 122.931 145.919 122.541 146.374C122.164 146.816 121.976 147.433 121.976 148.226C121.976 148.602 122.008 148.966 122.073 149.317C122.151 149.655 122.294 150.025 122.502 150.428C122.32 150.61 122.106 150.739 121.859 150.817C121.612 150.895 121.391 150.934 121.196 150.934ZM123.067 159.08C122.626 159.08 122.229 158.996 121.878 158.827C121.528 158.671 121.333 158.457 121.294 158.184C121.489 158.093 121.638 157.97 121.742 157.814C121.859 157.645 121.956 157.43 122.034 157.171C122.112 156.898 122.19 156.547 122.268 156.118L123.652 149.044C123.808 148.291 124.081 147.66 124.47 147.154C124.86 146.634 125.354 146.225 125.951 145.926C126.549 145.614 127.231 145.4 127.998 145.283L125.893 156.177C125.776 156.813 125.614 157.346 125.406 157.775C125.198 158.203 124.906 158.528 124.529 158.749C124.165 158.97 123.678 159.08 123.067 159.08ZM128.719 152.825C128.524 152.825 128.277 152.818 127.978 152.805C127.679 152.779 127.368 152.747 127.043 152.708C126.731 152.656 126.452 152.597 126.205 152.532L126.575 150.642C126.757 150.655 126.997 150.668 127.296 150.681C127.595 150.681 127.9 150.688 128.212 150.701C128.524 150.701 128.79 150.701 129.011 150.701C129.271 150.701 129.531 150.701 129.791 150.701C130.063 150.688 130.33 150.681 130.59 150.681C130.59 150.759 130.596 150.837 130.609 150.915C130.622 150.993 130.629 151.064 130.629 151.129C130.616 151.649 130.447 152.065 130.122 152.376C129.797 152.675 129.329 152.825 128.719 152.825ZM135.367 158.496C134.717 158.496 134.139 158.405 133.632 158.223C133.126 158.054 132.703 157.801 132.366 157.463C132.028 157.112 131.774 156.696 131.606 156.216C131.437 155.735 131.352 155.189 131.352 154.579C131.352 153.643 131.482 152.766 131.742 151.948C132.002 151.116 132.385 150.389 132.892 149.765C133.398 149.141 134.022 148.654 134.763 148.303C135.516 147.953 136.38 147.777 137.355 147.777C138.017 147.777 138.595 147.868 139.089 148.05C139.596 148.219 140.011 148.472 140.336 148.81C140.674 149.148 140.927 149.557 141.096 150.038C141.265 150.506 141.35 151.038 141.35 151.636C141.35 152.571 141.22 153.455 140.96 154.286C140.7 155.105 140.31 155.832 139.791 156.469C139.284 157.106 138.66 157.606 137.92 157.97C137.179 158.32 136.328 158.496 135.367 158.496ZM135.679 157.326C136.003 157.326 136.296 157.177 136.556 156.878C136.815 156.566 137.036 156.157 137.218 155.65C137.413 155.131 137.569 154.566 137.686 153.955C137.816 153.344 137.907 152.734 137.959 152.123C138.024 151.5 138.056 150.934 138.056 150.428C138.056 149.986 137.985 149.629 137.842 149.356C137.699 149.083 137.432 148.947 137.043 148.947C136.705 148.947 136.4 149.103 136.127 149.414C135.867 149.713 135.64 150.116 135.445 150.623C135.263 151.116 135.113 151.668 134.996 152.279C134.88 152.89 134.789 153.507 134.724 154.13C134.672 154.741 134.646 155.313 134.646 155.845C134.646 156.274 134.717 156.631 134.86 156.917C135.016 157.19 135.289 157.326 135.679 157.326ZM146.196 158.496C145.546 158.496 144.968 158.405 144.461 158.223C143.954 158.054 143.532 157.801 143.194 157.463C142.857 157.112 142.603 156.696 142.434 156.216C142.265 155.735 142.181 155.189 142.181 154.579C142.181 153.643 142.311 152.766 142.571 151.948C142.831 151.116 143.214 150.389 143.721 149.765C144.227 149.141 144.851 148.654 145.591 148.303C146.345 147.953 147.209 147.777 148.183 147.777C148.846 147.777 149.424 147.868 149.918 148.05C150.424 148.219 150.84 148.472 151.165 148.81C151.503 149.148 151.756 149.557 151.925 150.038C152.094 150.506 152.178 151.038 152.178 151.636C152.178 152.571 152.048 153.455 151.789 154.286C151.529 155.105 151.139 155.832 150.619 156.469C150.113 157.106 149.489 157.606 148.748 157.97C148.008 158.32 147.157 158.496 146.196 158.496ZM146.507 157.326C146.832 157.326 147.124 157.177 147.384 156.878C147.644 156.566 147.865 156.157 148.047 155.65C148.242 155.131 148.398 154.566 148.515 153.955C148.645 153.344 148.735 152.734 148.787 152.123C148.852 151.5 148.885 150.934 148.885 150.428C148.885 149.986 148.813 149.629 148.671 149.356C148.528 149.083 148.261 148.947 147.871 148.947C147.534 148.947 147.228 149.103 146.956 149.414C146.696 149.713 146.468 150.116 146.273 150.623C146.092 151.116 145.942 151.668 145.825 152.279C145.708 152.89 145.617 153.507 145.552 154.13C145.5 154.741 145.474 155.313 145.474 155.845C145.474 156.274 145.546 156.631 145.689 156.917C145.845 157.19 146.118 157.326 146.507 157.326ZM156.011 158.496C155.296 158.496 154.712 158.34 154.257 158.028C153.802 157.703 153.465 157.261 153.244 156.703C153.036 156.131 152.932 155.462 152.932 154.696C152.932 153.721 153.075 152.818 153.361 151.987C153.659 151.142 154.069 150.408 154.588 149.785C155.121 149.148 155.738 148.654 156.44 148.303C157.154 147.953 157.921 147.777 158.739 147.777C159.051 147.777 159.356 147.797 159.655 147.836C159.967 147.875 160.233 147.946 160.454 148.05L163.494 148.654C163.299 149.694 163.092 150.778 162.871 151.909C162.663 153.039 162.422 154.208 162.15 155.417C162.137 155.534 162.117 155.67 162.091 155.826C162.065 155.982 162.052 156.118 162.052 156.235C162.052 156.469 162.117 156.683 162.247 156.878C162.39 157.06 162.611 157.158 162.91 157.171C162.806 157.482 162.637 157.736 162.403 157.931C162.169 158.125 161.896 158.268 161.585 158.359C161.286 158.45 160.98 158.496 160.669 158.496C160.266 158.496 159.896 158.405 159.558 158.223C159.22 158.041 158.993 157.762 158.876 157.385C158.538 157.723 158.129 157.989 157.648 158.184C157.167 158.392 156.622 158.496 156.011 158.496ZM157.141 157.268C157.531 157.268 157.843 157.132 158.077 156.859C158.324 156.573 158.518 156.229 158.661 155.826C158.804 155.423 158.908 155.033 158.973 154.657L159.909 149.356C159.714 149.213 159.512 149.109 159.304 149.044C159.11 148.979 158.934 148.947 158.778 148.947C158.401 148.947 158.07 149.096 157.784 149.395C157.499 149.694 157.252 150.096 157.044 150.603C156.849 151.097 156.687 151.642 156.557 152.24C156.44 152.825 156.355 153.422 156.303 154.033C156.251 154.631 156.225 155.176 156.225 155.67C156.225 156.073 156.284 156.443 156.401 156.781C156.518 157.106 156.764 157.268 157.141 157.268ZM163.455 148.869L160.123 148.654C160.253 147.966 160.363 147.316 160.454 146.705C160.545 146.082 160.604 145.517 160.63 145.01C160.63 144.802 160.623 144.607 160.61 144.425C160.61 144.243 160.597 144.062 160.571 143.88C160.805 143.737 161.084 143.626 161.409 143.548C161.747 143.457 162.085 143.412 162.422 143.412C162.877 143.412 163.273 143.529 163.611 143.763C163.949 143.997 164.111 144.425 164.098 145.049C164.098 145.231 164.066 145.51 164.001 145.887C163.949 146.264 163.878 146.705 163.787 147.212C163.696 147.719 163.585 148.271 163.455 148.869ZM167.781 158.535C167.275 158.535 166.781 158.496 166.3 158.418C165.82 158.34 165.378 158.216 164.975 158.047C164.585 157.879 164.274 157.658 164.04 157.385C163.806 157.112 163.689 156.781 163.689 156.391C163.702 156.014 163.799 155.709 163.981 155.475C164.163 155.228 164.403 155.046 164.702 154.929C165.014 154.799 165.358 154.735 165.735 154.735C165.969 154.735 166.203 154.761 166.437 154.812C166.684 154.864 166.891 154.949 167.06 155.066C166.995 155.287 166.943 155.495 166.904 155.689C166.878 155.884 166.865 156.105 166.865 156.352C166.891 156.677 167.015 156.943 167.236 157.151C167.457 157.346 167.755 157.443 168.132 157.443C168.535 157.443 168.866 157.346 169.126 157.151C169.386 156.956 169.516 156.703 169.516 156.391C169.516 156.053 169.386 155.741 169.126 155.456C168.866 155.17 168.535 154.897 168.132 154.637C167.729 154.377 167.32 154.111 166.904 153.838C166.541 153.578 166.196 153.305 165.872 153.02C165.56 152.721 165.306 152.396 165.112 152.045C164.93 151.681 164.839 151.272 164.839 150.817C164.852 150.311 165.001 149.869 165.287 149.492C165.573 149.103 165.95 148.784 166.417 148.537C166.885 148.278 167.405 148.089 167.976 147.972C168.561 147.842 169.139 147.777 169.711 147.777C170.282 147.777 170.847 147.849 171.406 147.992C171.965 148.122 172.42 148.342 172.77 148.654C173.134 148.966 173.309 149.382 173.296 149.902C173.296 150.447 173.115 150.856 172.751 151.129C172.4 151.402 171.958 151.539 171.426 151.539C171.205 151.539 170.971 151.513 170.724 151.461C170.49 151.409 170.276 151.324 170.081 151.207C170.146 151.051 170.198 150.882 170.237 150.701C170.276 150.506 170.302 150.317 170.315 150.135C170.315 149.733 170.211 149.414 170.003 149.18C169.808 148.947 169.516 148.823 169.126 148.81C168.814 148.81 168.535 148.901 168.288 149.083C168.054 149.265 167.937 149.525 167.937 149.863C167.924 150.161 168.022 150.441 168.23 150.701C168.437 150.96 168.704 151.214 169.029 151.461C169.366 151.694 169.724 151.928 170.1 152.162C170.542 152.435 170.951 152.721 171.328 153.02C171.705 153.305 172.004 153.63 172.225 153.994C172.458 154.358 172.569 154.793 172.556 155.3C172.556 155.936 172.355 156.495 171.952 156.976C171.562 157.456 171.01 157.833 170.295 158.106C169.581 158.379 168.743 158.522 167.781 158.535Z" fill="white"/>
</g>
<defs>
<clipPath id="clip0_353_13992">
<path d="M49.4951 138.952C49.4951 138.728 49.6769 138.546 49.9011 138.546H184.693C184.917 138.546 185.099 138.728 185.099 138.952V156.816C185.099 162.197 180.737 166.56 175.355 166.56H59.2391C53.8577 166.56 49.4951 162.197 49.4951 156.816V138.952Z" fill="white"/>
</clipPath>
</defs>
</svg>
